:SAMPLES-PER-SECOND 30
:FULLY-SPECIFIED
:DEGREES
176
root  -2.468 40.97 1.25024 177.71 -80.8024 -176.877
RightUpLeg  1.81598 0.546918 -0.156646
RightLeg  -2.06902 -9.06529 -0.312007
RightFoot  0.159616 -0.22676 2.25555
RightToes  -3.10678e-008 1.75238e-005 3.56266e-009
Spine  -3.53332 1.31115 0.0376776
Spine1  1.91182 1.32955 -0.308594
HEad  -10.1093 1.35627 6.66279
LeftShoulder1  2.48489 -4.51711 -24.7952
LeftArm  -53.0964 12.5657 -59.2288
LeftForeArm  140.638 -2.21932 18.6975
LeftHand  -1.67112 -6.9852 15.9217
RightShoulder  1.26005 1.93834 16.5309
RightArm  -13.1138 39.3173 43.1937
RightForeArm  52.6472 76.5216 46.1189
RightHand  0.125816 6.71118 0.855051
LeftUpLeg  3.98097 1.04111 1.56841
LeftLeg  -3.42339 23.1385 -1.49587
LeftFoot  -0.640121 0.264614 -2.66234
LeftToes  4.76857e-008 1.46588e-008 1.31384e-009
177
root  -2.36016 40.978 1.27273 177.671 -80.8683 -176.702
RightUpLeg  1.5943 0.529435 -0.177261
RightLeg  -2.28503 -9.20432 -0.179129
RightFoot  0.431015 -0.221289 2.14311
RightToes  -3.10678e-008 1.75238e-005 3.56266e-009
Spine  -3.4903 1.34797 -0.0695834
Spine1  1.70718 1.26522 0.228208
HEad  -10.3953 1.07444 5.52506
LeftShoulder1  2.67157 -4.92773 -25.5364
LeftArm  -50.4829 0.774894 -58.9247
LeftForeArm  138.199 -2.29619 18.813
LeftHand  -1.63559 -6.59306 16.0795
RightShoulder  1.74394 3.37565 18.9098
RightArm  -5.57066 31.8593 46.1638
RightForeArm  43.0305 72.7784 33.5147
RightHand  0.175961 6.22496 1.42039
LeftUpLeg  3.8135 0.96043 1.55475
LeftLeg  -3.82379 23.1594 -1.61767
LeftFoot  -0.260109 0.251791 -2.47829
LeftToes  4.76857e-008 1.46588e-008 1.31384e-009
178
root  -2.24371 40.9851 1.27418 176.476 -82.2269 -175.497
RightUpLeg  1.76583 0.479837 -0.101675
RightLeg  -2.72877 -10.5671 0.0738918
RightFoot  0.666928 -0.223422 2.17443
RightToes  -3.10678e-008 1.75238e-005 3.56266e-009
Spine  -3.20264 1.14842 -0.214651
Spine1  1.36036 0.982887 0.681471
HEad  -10.0328 0.582185 4.82533
LeftShoulder1  2.83582 -5.22354 -26.3794
LeftArm  -43.1387 -12.6653 -58.6358
LeftForeArm  128.431 -0.975162 17.4867
LeftHand  -1.62135 -6.11522 16.5898
RightShoulder  2.22222 4.53343 21.376
RightArm  -0.653199 23.2642 47.4278
RightForeArm  35.9219 65.5393 21.5173
RightHand  0.257572 5.98898 2.28459
LeftUpLeg  3.30878 0.852342 1.65284
LeftLeg  -3.48807 21.932 -1.29393
LeftFoot  -0.0652228 0.253726 -2.52675
LeftToes  4.76857e-008 1.46588e-008 1.31384e-009
179
root  -2.1518 40.994 1.25561 175.593 -84.1776 -174.681
RightUpLeg  2.09634 0.248495 -0.193946
RightLeg  -3.12785 -12.273 0.382445
RightFoot  0.744213 -0.221578 2.15544
RightToes  -3.10678e-008 1.75238e-005 3.56266e-009
Spine  -2.89232 0.990745 -0.629515
Spine1  1.116 0.784468 1.05434
HEad  -9.86116 -0.347386 4.425
LeftShoulder1  2.93475 -5.46728 -26.6097
LeftArm  -37.6395 -26.2285 -59.8154
LeftForeArm  117.696 -0.0509409 15.4475
LeftHand  -1.59597 -5.07774 17.8717
RightShoulder  2.62383 5.26994 23.7854
RightArm  2.55662 14.8772 48.1962
RightForeArm  32.141 53.972 12.9211
RightHand  0.18238 5.34089 1.65974
LeftUpLeg  2.96255 0.871163 1.74581
LeftLeg  -3.40095 19.9606 -1.271
LeftFoot  0.216714 0.241111 -2.35199
LeftToes  4.76857e-008 1.46588e-008 1.31384e-009
180
root  -2.08982 41.0005 1.22694 175.147 -86.254 -174.323
RightUpLeg  2.39178 0.00975884 -0.320641
RightLeg  -3.29989 -14.0895 0.569867
RightFoot  0.713741 -0.213098 2.03048
RightToes  -3.10678e-008 1.75238e-005 3.56266e-009
Spine  -2.03622 0.843071 -2.08103
Spine1  0.126716 0.42878 2.74463
HEad  -9.67325 -1.69986 3.38476
LeftShoulder1  2.87776 -5.47645 -25.9137
LeftArm  -29.1826 -36.8387 -62.5451
LeftForeArm  104.462 0.53239 10.7695
LeftHand  -1.48534 -4.08021 18.355
RightShoulder  2.96094 5.938 25.2884
RightArm  6.199 8.26005 49.1655
RightForeArm  31.5223 36.8595 6.48056
RightHand  0.0910699 5.02676 0.695016
LeftUpLeg  2.75832 0.863208 1.75193
LeftLeg  -3.50421 17.9226 -1.36681
LeftFoot  0.532734 0.231737 -2.23085
LeftToes  4.76857e-008 1.46588e-008 1.31384e-009
181
root  -2.08464 41.0052 1.2163 173.992 -88.1937 -173.153
RightUpLeg  2.60211 -0.169471 -0.451557
RightLeg  -3.38137 -15.8516 0.671156
RightFoot  0.626916 -0.21622 2.08132
RightToes  -3.10678e-008 1.75238e-005 3.56266e-009
Spine  -1.15272 0.826028 -3.14782
Spine1  -1.03462 0.258785 4.0884
HEad  -8.95869 -2.85968 2.87885
LeftShoulder1  2.79896 -5.44925 -25.0992
LeftArm  -19.5835 -44.0946 -65.1689
LeftForeArm  94.8104 -4.16229 4.46118
LeftHand  -1.47123 -3.3505 19.6509
RightShoulder  3.47624 6.92637 27.3325
RightArm  1.34053 2.31255 48.7661
RightForeArm  43.7509 17.5061 3.93334
RightHand  0.110616 4.40496 1.08911
LeftUpLeg  2.50679 0.599196 1.56823
LeftLeg  -3.52573 16.2889 -1.21946
LeftFoot  0.744918 0.222895 -2.149
LeftToes  4.76857e-008 1.46588e-008 1.31384e-009
182
root  -2.14406 41.004 1.211 171.873 -89.8283 -170.77
RightUpLeg  2.67471 -0.397049 -0.635612
RightLeg  -3.57202 -17.2283 0.877405
RightFoot  0.45557 -0.207124 1.94651
RightToes  -3.10678e-008 1.75238e-005 3.56266e-009
Spine  -0.571172 1.22064 -3.01573
Spine1  -1.8666 0.659392 4.18397
HEad  -8.74795 -4.61531 2.65225
LeftShoulder1  2.73633 -5.25699 -25.0666
LeftArm  -9.78921 -50.7298 -67.8663
LeftForeArm  87.4259 -12.7179 -0.695502
LeftHand  -1.39999 -2.33807 21.0714
RightShoulder  4.04383 7.82377 29.7706
RightArm  -27.2583 -6.52453 46.0681
RightForeArm  78.6603 3.42908 4.76306
RightHand  0.361895 3.95026 4.19398
LeftUpLeg  2.07636 0.478221 1.45086
LeftLeg  -3.43758 14.7868 -1.20817
LeftFoot  0.786846 0.202715 -1.95345
LeftToes  4.76857e-008 1.46588e-008 1.31384e-009
